<?xml version="1.0" encoding="utf-8"?>
<svg xmlns="http://www.w3.org/2000/svg" width="178" height="44" viewBox="0 0 178 44">
  <rect width="178" height="44" fill="#0D0D0D"/>

  <!-- "All" -->
  <g transform="translate(-25.18,-57.67) scale(0.22)">
    <path fill="#F0F0F0" d="M184.559 291.436L204.1 291.458L240.28 384.441C246.109 399.509 251.265 413.847 257.48 428.817C250.369 429.016 242.829 428.885 235.684 428.871C231.588 418.82 227.542 407.65 223.866 397.454L205.819 397.442L166.097 397.316C162.165 407.777 158.482 418.173 154.468 428.672C147.197 428.701 139.926 428.662 132.656 428.555C134.781 423.421 136.832 418.209 138.733 412.989C153.498 372.434 170.532 332.23 184.559 291.436Z"/>
    <path fill="#0D0D0D" d="M195.057 319.756C197.085 323.882 201.376 336.022 203.094 340.701C207.65 353.341 212.306 365.944 217.062 378.509L194.75 378.53L172.477 378.522C176.62 367.698 180.696 356.848 184.702 345.972C187.715 337.792 191.318 327.481 195.057 319.756Z"/>
    <path fill="#F0F0F0" d="M261.435 288.439C268.364 288.371 275.441 288.461 282.384 288.475L282.383 359.001C282.363 371.362 281.927 384.265 282.544 396.615C283.083 407.404 287.882 411.736 298.538 412.662L298.5 429.591C288.22 429.71 277.005 430.26 269.158 422.332C260.824 413.912 261.523 400.407 261.468 389.46C261.427 381.27 261.477 373.14 261.487 364.986L261.435 288.439Z"/>
    <path fill="#F0F0F0" d="M303.414 288.29C310.349 288.216 317.459 288.32 324.41 288.343L324.408 361.304C324.409 373.101 323.953 385.439 324.762 397.145C325.557 408.649 329.711 412.195 340.625 412.625C340.637 418.38 340.619 424.135 340.573 429.89L339.607 429.905C328.867 430.017 319.787 429.636 311.627 421.601C302.922 413.03 303.391 399.752 303.257 388.448C303.172 381.326 303.181 374.277 303.165 367.195C303.092 340.893 303.175 314.591 303.414 288.29Z"/>
  </g>

  <!-- "$orted" -->
  <g transform="translate(-24.12,-57.67) scale(0.22)">
    <path fill="#4CAF50" d="M384.53 278.098L403.69 278.104L403.835 294.402C426.762 298.623 438.164 309.854 441.153 332.882L417.15 332.909C413.944 318.192 406.389 313.344 391.596 313.795C385.939 313.967 378.476 316.28 374.722 320.598C371.766 323.999 370.83 329.729 371.248 334.107C372.811 348.783 393.569 349.781 404.817 353.634C413.541 356.623 420.586 358.719 428.029 364.663C435.262 370.463 439.877 378.912 440.85 388.131C443.337 411.059 425.083 427.216 403.507 429.428C403.501 432.927 404.303 443.478 402.666 445.536L400.625 445.699L384.821 445.985C384.485 440.666 384.556 434.644 384.501 429.267C366.05 427.192 348.156 416.176 345.173 396.663C344.842 394.498 344.916 391.589 344.9 389.368C352.625 389.099 361.243 389.252 369.037 389.225C370.174 395.777 372.249 401.121 377.903 405.174C391.858 415.177 421.66 410.037 417.149 387.752C416.466 384.38 413.836 379.63 410.738 377.928C395.584 369.602 376.915 369.335 362.311 359.197C355.245 354.329 350.541 348.465 349.046 339.883C347.244 329.541 348.247 319.258 354.362 310.494C361.633 300.066 372.519 296.414 384.367 294.186C384.347 288.882 384.47 283.415 384.53 278.098Z"/>
    <path fill="#4CAF50" d="M497.01 329.416C525.374 326.76 550.471 347.723 552.907 376.107C555.344 404.491 534.188 429.424 505.786 431.641C477.693 433.834 453.089 412.958 450.679 384.883C448.269 356.807 468.954 332.043 497.01 329.416Z"/>
    <path fill="#0D0D0D" d="M494.924 348.62C502.801 348.006 509.364 348.013 516.502 352.032C532.27 360.908 535.704 384.026 526.968 398.911C522.675 406.225 516.197 410.215 508.185 412.35C491.365 414.551 477.952 407.257 473.417 390.781C468.479 372.841 476.116 353.648 494.924 348.62Z"/>
    <path fill="#4CAF50" d="M606.756 331.133C610.661 330.859 615.242 330.996 619.204 331.018C619.409 337.019 619.246 343.893 619.227 349.965C611.207 349.911 599.346 349.049 593.558 355.469C585.111 364.839 587.128 382.67 587.228 394.359C587.323 406.141 587.325 417.923 587.235 429.705C580.408 429.564 573.34 429.629 566.493 429.602C565.161 428.209 565.859 400.253 565.878 395.502L565.909 331.398C572.794 331.387 579.679 331.426 586.563 331.515L586.687 344.72L587.442 343.566C592.692 335.411 597.297 332.698 606.756 331.133Z"/>
    <path fill="#4CAF50" d="M662.752 293.871C663.378 296.472 663.033 326.761 663.02 331.726C670.269 331.387 678.709 331.559 686.049 331.543L686.051 349.819C678.52 349.793 670.989 349.816 663.458 349.888L663.415 354.706L663.275 381.737C663.254 387.552 663.013 393.361 663.677 399.143C665.268 412.986 674.318 412.101 685.022 412.174L684.997 430.46C680.29 430.521 675.581 430.473 670.876 430.315C640.785 427.688 641.933 405.308 641.957 382.618L641.982 350.094L625.279 350.18C625.154 344.022 625.24 337.568 625.229 331.385C630.864 331.256 636.827 331.336 642.489 331.323L642.411 313.253C649.054 307.163 656.155 299.502 662.752 293.871Z"/>
    <path fill="#4CAF50" d="M737.71 329.685C751.345 328.83 767.624 333.383 777.243 343.455C789.629 356.426 790.646 370.723 790.455 387.541L713.888 387.505C716.472 417.351 754.055 423.509 767.699 399.878C768.387 398.686 770.973 399.035 772.25 399.031L787.452 399.139C780.927 418.79 770.876 428.458 749.385 431.072C735.529 432.757 721.943 430.145 710.84 421.361C688.921 404.02 686.139 367.445 703.958 346.304C713.371 335.052 723.311 331.045 737.71 329.685Z"/>
    <path fill="#0D0D0D" d="M738.278 347.612C755.241 346.151 765.997 354.853 769.378 371.543L745.543 371.529L713.546 371.501C716.978 357.345 723.896 350.214 738.278 347.612Z"/>
    <path fill="#4CAF50" d="M878.594 288.459C885.746 288.397 893.04 288.491 900.204 288.509L900.011 429.626L878.913 429.809C878.765 425.33 878.826 420.591 878.81 416.089C866.076 434.143 842.726 435.365 824.15 426.08C803.557 413.842 795.72 391.188 799.896 368.146C802.169 355.409 809.531 344.147 820.285 336.955C838.157 324.917 865.802 326.084 878.476 345.344C878.653 326.383 878.692 307.421 878.594 288.459Z"/>
    <path fill="#0D0D0D" d="M847.902 347.687C867.23 347.299 879.01 361.132 878.919 379.748C878.828 398.202 871.56 410.707 851.968 413.476C821.633 413.658 811.156 380.101 827.048 357.684C831.573 351.302 840.306 348.479 847.902 347.687Z"/>
  </g>
</svg>